<svg xmlns="http://www.w3.org/2000/svg" width="38" height="27.143" viewBox="0 0 38 27.143">
  <g id="noun-mail-650797" transform="translate(-8 -20)">
    <g id="Group_2" data-name="Group 2" transform="translate(8 20)">
      <path id="Path_1349" data-name="Path 1349" d="M11.619,972.362A3.631,3.631,0,0,0,8,975.981v19.9a3.631,3.631,0,0,0,3.619,3.619H42.381A3.631,3.631,0,0,0,46,995.886v-19.9a3.631,3.631,0,0,0-3.619-3.619Zm0,1.81H42.381a1.825,1.825,0,0,1,.481.071L28.244,988.987a1.737,1.737,0,0,1-2.516,0L11.153,974.228A1.842,1.842,0,0,1,11.619,974.172ZM9.88,975.529l10.772,10.9L9.894,996.409a1.834,1.834,0,0,1-.085-.523v-19.9a1.835,1.835,0,0,1,.071-.452Zm34.24,0a1.836,1.836,0,0,1,.071.452v19.9a1.835,1.835,0,0,1-.085.523l-10.758-9.995L44.12,975.529ZM32.061,987.7l10.716,9.938a1.832,1.832,0,0,1-.4.057H11.619a1.832,1.832,0,0,1-.4-.057l10.7-9.924,2.516,2.544a3.585,3.585,0,0,0,5.089,0Z" transform="translate(-8 -972.362)" fill="#fefefe"/>
    </g>
  </g>
</svg>
