<svg xmlns="http://www.w3.org/2000/svg" width="36" height="36.036" viewBox="0 0 36 36.036">
  <g id="noun-phone-1069474" transform="translate(-0.085)">
    <path id="Path_1347" data-name="Path 1347" d="M692.085,194.023a1.06,1.06,0,1,1-2.12,0,15.9,15.9,0,0,0-15.9-15.9,1.06,1.06,0,0,1,0-2.12A18.022,18.022,0,0,1,692.085,194.023Zm-6.361,0a1.06,1.06,0,0,1-2.12,0,9.541,9.541,0,0,0-9.541-9.541,1.06,1.06,0,0,1,0-2.12A11.662,11.662,0,0,1,685.724,194.023Zm.512,13.35-3.564,3.564c-3.179,3.179-13.371-1-18.929-6.559s-9.738-15.75-6.559-18.929l3.564-3.564a2.471,2.471,0,0,1,3.7.19l4.727,5.777a2.855,2.855,0,0,1-.184,3.779l-2.251,2.251a1.107,1.107,0,0,0-.162,1.206c.061.116.107.2.182.335.131.23.293.492.488.78a17.886,17.886,0,0,0,4.671,4.67c.289.195.551.357.782.489.132.075.219.121.256.139a1.146,1.146,0,0,0,1.28-.122l2.251-2.251a2.857,2.857,0,0,1,3.779-.184l5.777,4.727A2.47,2.47,0,0,1,686.236,207.373Zm-20.994-14.989,2.251-2.251a.737.737,0,0,0,.043-.937l-4.727-5.777a.354.354,0,0,0-.562-.034l-3.564,3.564c-1.994,1.994,1.748,11.12,6.558,15.931s13.937,8.552,15.931,6.558l3.563-3.564a.353.353,0,0,0-.034-.562l-5.777-4.727a.739.739,0,0,0-.937.043l-2.251,2.251a3.233,3.233,0,0,1-3.744.512,12.01,12.01,0,0,1-1.259-.759,20,20,0,0,1-5.243-5.242,12.024,12.024,0,0,1-.754-1.251A3.218,3.218,0,0,1,665.243,192.384Z" transform="translate(-656 -176)" fill="#fefefe"/>
  </g>
</svg>
